# xmcd
#
# Track frame offsets:
#	150
#	22970
#	39925
#	56720
#	74822
#	95912
#	114940
#	135702
#	152300
#	176505
#	191835
#	212245
#
# Disc length: 3044 seconds
#
# Revision: 2
# Processed by: cddbd v1.5.2PL0 Copyright (c) Steve Scherf et al.
# Submitted via: audiograbber 1.83.01
#
DISCID=a90be20c
DTITLE=Todo Mix - Todo Mix - Cd2
DYEAR=1996
DGENRE=Dance
TTITLE0=Azucar Moreno - Solo se vive una Vez
TTITLE1=Cccp - Big Dynamo (Xtudio remix Edit)
TTITLE2=Gabriel - Twist and Turn (Crash radio Edit)
TTITLE3=Bong - Do you Remember (Todd Terry radio Mix)
TTITLE4=No me pises que llevo Chanclas - Bolillon
TTITLE5=The Sun Club - Fiesta
TTITLE6=Victoria Wilson James - Find the Child (Dream party Mix)
TTITLE7=Farahy - Wake Up (Radio Edit)
TTITLE8=Asap  - Menealo (Latin House)
TTITLE9=E. Sensual - Bg Tips (You should be Dancing)
TTITLE10=Sunscreem - When
TTITLE11=Cristian Varela - Two spirits in One (Vocal radio Edit)
EXTD=
EXTT0=
EXTT1=
EXTT2=
EXTT3=
EXTT4=
EXTT5=
EXTT6=
EXTT7=
EXTT8=
EXTT9=
EXTT10=
EXTT11=
PLAYORDER=
